<?xml version="1.0" encoding="utf-8"?>
<!-- Generator: Adobe Illustrator 15.0.0, SVG Export Plug-In  -->
<!DOCTYPE svg PUBLIC "-//W3C//DTD SVG 1.1//EN" "http://www.w3.org/Graphics/SVG/1.1/DTD/svg11.dtd" [
	<!ENTITY ns_flows "http://ns.adobe.com/Flows/1.0/">
]>
<svg version="1.1"
	 xmlns="http://www.w3.org/2000/svg" xmlns:xlink="http://www.w3.org/1999/xlink" xmlns:a="http://ns.adobe.com/AdobeSVGViewerExtensions/3.0/"
	 x="0px" y="0px" width="628px" height="109px" viewBox="0 0 628 109" overflow="visible" enable-background="new 0 0 628 109"
	 xml:space="preserve">
<defs>
</defs>
<path fill="#d21888" d="M0,76.5v30.6001h32.28271c6.32324,0,11.90771-0.73828,16.75391-2.21826
	c4.84326-1.47754,8.92383-3.54297,12.23975-6.19629c3.31348-2.65137,5.81396-5.7876,7.49707-9.40967
	c1.68311-3.61914,2.52441-7.57324,2.52441-11.85742c0-4.18164-0.84131-8.00635-2.52441-11.4751
	c-1.68311-3.46631-3.80127-6.62939-6.34961-9.48584c-2.55078-2.85449-5.30469-5.43164-8.26172-7.72656
	c-2.95996-2.29541-5.71387-4.36035-8.26221-6.19629c-2.55078-1.83594-4.6665-3.4668-6.34961-4.896
	c-1.68262-1.42725-2.52441-2.70166-2.52441-3.8252c0-1.32471,0.6123-2.29492,1.83594-2.90674
	c1.22412-0.6123,3.8252-0.91846,7.80322-0.91846h20.34912V0h-30.6001c-4.69287,0-9.20654,0.45947-13.54053,1.37744
	c-4.33691,0.91797-8.18555,2.52441-11.55176,4.81934c-3.36572,2.29492-6.04346,5.33154-8.03223,9.10352
	c-1.98926,3.7749-2.9834,8.46777-2.9834,14.07568c0,3.77539,0.78857,7.26758,2.37109,10.48096
	c1.58057,3.21289,3.5957,6.19629,6.04395,8.9502c2.44775,2.75439,5.04883,5.25439,7.80273,7.49707
	c2.75391,2.24463,5.35498,4.28369,7.80322,6.12012c2.44775,1.83594,4.46094,3.49512,6.04346,4.97266
	c1.58008,1.47949,2.37158,2.83057,2.37158,4.0542c0,2.0415-0.8418,3.39258-2.5249,4.05469
	C28.53467,76.17041,25.24512,76.5,20.34912,76.5H0z"/>
<path fill="#d21888" d="M113.21973,30.6001H96.6958V6.42627H66.09619v69.46191c0,5.50781,0.68848,10.22705,2.06543,14.15283
	c1.37695,3.92773,3.31348,7.14062,5.81396,9.63867c2.49805,2.50098,5.50781,4.36035,9.02686,5.58447
	s7.36816,1.83594,11.55176,1.83594h18.66553V81.70264h-6.42578c-3.87744,0-6.52881-0.73877-7.95605-2.21875
	c-1.42969-1.47754-2.14209-4.36035-2.14209-8.64453V56.91602h16.52393V30.6001z"/>
<path fill="#d21888" d="M195.22705,107.1001V77.41846c0-8.66895-1.22412-16.06494-3.67188-22.18506
	c-2.44824-6.12012-5.71338-11.14307-9.79199-15.07031c-4.08105-3.92578-8.77344-6.80859-14.07617-8.64453
	c-5.30469-1.83594-10.8125-2.75439-16.52393-2.75439c-5.40771,0-10.5332,1.02051-15.37646,3.06006
	c-4.8457,2.0415-9.07959,4.92236-12.69873,8.64453c-3.62207,3.72461-6.479,8.18555-8.56836,13.38721
	c-2.0918,5.20264-3.13623,10.96631-3.13623,17.28955c0,5.10156,0.99414,9.94482,2.9834,14.53467
	c1.98877,4.59033,4.7168,8.62061,8.18555,12.08691c3.46631,3.46924,7.521,6.19678,12.16357,8.18604
	c4.64014,1.98877,9.6123,2.98291,14.91748,2.98291c1.52979,0,3.16016-0.07617,4.896-0.229
	c1.73291-0.15332,3.61914-0.33252,5.66064-0.53564V78.18311c-1.73535,0.6123-3.21289,1.04736-4.43701,1.30078
	c-1.22363,0.25586-2.39746,0.38281-3.51855,0.38281c-2.55078,0-4.84619-0.99512-6.88525-2.98389
	c-2.0415-1.98926-3.06006-4.6665-3.06006-8.03223c0-3.46631,1.04492-6.17041,3.13672-8.10938
	c2.08936-1.93652,4.61377-2.90674,7.57324-2.90674c2.95752,0,5.58447,0.97021,7.87939,2.90674
	c2.29541,1.93896,3.44287,4.64307,3.44287,8.10938v38.24951H195.22705z"/>
<path fill="#d21888" d="M240.36084,30.6001h-16.52393V6.42627h-30.6001v69.46191c0,5.50781,0.68896,10.22705,2.06592,14.15283
	c1.37695,3.92773,3.31299,7.14062,5.81396,9.63867c2.49805,2.50098,5.50781,4.36035,9.02686,5.58447
	s7.36768,1.83594,11.55127,1.83594h18.66602V81.70264h-6.42578c-3.87744,0-6.52881-0.73877-7.95605-2.21875
	c-1.42969-1.47754-2.14209-4.36035-2.14209-8.64453V56.91602h16.52393V30.6001z"/>
<path fill="#d21888" d="M319.15479,58.44629c-1.32617-4.38477-3.16211-8.38867-5.50781-12.01074
	c-2.34717-3.61914-5.25439-6.73193-8.7207-9.33252c-3.46875-2.60107-7.44678-4.64062-11.93408-6.12012
	c-4.48975-1.47754-9.53857-2.21875-15.14697-2.21875c-4.79541,0-9.51221,0.9707-14.15234,2.90723
	c-4.64258,1.93896-8.77393,4.64209-12.39307,8.10889c-3.62207,3.46875-6.55518,7.59961-8.79736,12.39307
	c-2.24512,4.79541-3.36621,9.99756-3.36621,15.60596c0,6.01953,0.99463,11.52783,2.9834,16.52393
	c1.98926,4.99902,4.76709,9.33301,8.33887,13.00488c3.56885,3.67188,7.80273,6.52881,12.69873,8.56787
	c4.896,2.03955,10.30127,3.06006,16.21826,3.06006c7.95557,0,15.37646-1.70898,22.26123-5.125
	c6.88525-3.4165,12.72314-7.77686,17.51807-13.08154l-17.28857-17.44238c-2.75391,2.95996-5.63721,5.40771-8.64453,7.34424
	c-3.00977,1.93896-6.65527,2.90723-10.93945,2.90723c-5.10156,0-8.92676-1.65674-11.4751-4.97266
	c-2.55078-3.31348-3.82471-7.36816-3.82471-12.16357c0-1.63037,0.32959-3.28955,0.99414-4.97266
	c0.6626-1.68262,1.53027-3.18652,2.60107-4.51367c1.07129-1.32373,2.26904-2.42139,3.5957-3.28906
	c1.32422-0.86572,2.60107-1.30029,3.82471-1.30029c2.24268,0,4.07861,0.25537,5.5083,0.76465
	c1.42725,0.51172,2.8042,1.32666,4.13086,2.44824l-15.2998,8.41504l8.7207,15.45264L319.15479,58.44629z"/>
<path fill="#d21888" d="M390.604,107.1001V67.47314c0-4.48682,0.53516-7.4707,1.60742-8.9502
	c1.07031-1.47754,2.4209-2.21875,4.05371-2.21875c1.62988,0,2.95801,0.74121,3.97754,2.21875
	c1.01953,1.47949,1.53125,4.46338,1.53125,8.9502v39.62695h30.59961v-48.0415c0-4.38477-0.86816-8.43945-2.60156-12.16357
	c-1.73535-3.72266-4.10742-6.93555-7.11426-9.63916c-3.00977-2.70117-6.50293-4.79346-10.48047-6.27295
	c-3.97754-1.47754-8.21191-2.21875-12.69824-2.21875c-4.59082,0-8.97754,0.7915-13.1582,2.37158
	c-4.18359,1.58301-7.85547,3.9541-11.0166,7.11475c-3.16309-3.16064-6.83496-5.53174-11.01562-7.11475
	c-4.18359-1.58008-8.56836-2.37158-13.1582-2.37158c-4.48926,0-8.74707,0.74121-12.77539,2.21875
	c-4.03027,1.47949-7.52344,3.57178-10.48047,6.27295c-2.95996,2.70361-5.30566,5.9165-7.03809,9.63916
	c-1.73633,3.72412-2.60156,7.77881-2.60156,12.16357v48.0415h30.60059V67.47314c0-4.48682,0.50879-7.4707,1.53027-8.9502
	c1.01758-1.47754,2.34473-2.21875,3.97754-2.21875c1.62988,0,2.9834,0.74121,4.05469,2.21875
	c1.07129,1.47949,1.60645,4.46338,1.60645,8.9502v39.62695H390.604z"/>
<path fill="#d21888" d="M511.62549,58.44629c-1.32715-4.38477-3.16309-8.38867-5.50781-12.01074
	c-2.34766-3.61914-5.25488-6.73193-8.7207-9.33252c-3.46875-2.60107-7.44727-4.64062-11.93457-6.12012
	c-4.48926-1.47754-9.53809-2.21875-15.14746-2.21875c-4.79492,0-9.51172,0.9707-14.15234,2.90723
	c-4.64258,1.93896-8.77344,4.64209-12.39258,8.10889c-3.62207,3.46875-6.55469,7.59961-8.79785,12.39307
	c-2.24512,4.79541-3.36621,9.99756-3.36621,15.60596c0,6.01953,0.99512,11.52783,2.98438,16.52393
	c1.98828,4.99902,4.7666,9.33301,8.33789,13.00488c3.56934,3.67188,7.80273,6.52881,12.69922,8.56787
	c4.89648,2.03955,10.30078,3.06006,16.21777,3.06006c7.95605,0,15.37598-1.70898,22.26172-5.125
	c6.88477-3.4165,12.72266-7.77686,17.51855-13.08154l-17.28906-17.44238c-2.75391,2.95996-5.63672,5.40771-8.64453,7.34424
	c-3.00977,1.93896-6.65527,2.90723-10.93945,2.90723c-5.10156,0-8.92676-1.65674-11.47461-4.97266
	c-2.55078-3.31348-3.82617-7.36816-3.82617-12.16357c0-1.63037,0.33008-3.28955,0.99512-4.97266
	c0.66211-1.68262,1.53027-3.18652,2.60059-4.51367c1.07129-1.32373,2.26953-2.42139,3.5957-3.28906
	c1.32422-0.86572,2.60156-1.30029,3.8252-1.30029c2.24316,0,4.0791,0.25537,5.50879,0.76465
	c1.42676,0.51172,2.80371,1.32666,4.13086,2.44824l-15.30078,8.41504l8.7207,15.45264L511.62549,58.44629z"/>
<path fill="#d21888" d="M540.99951,107.1001V65.94336c0-3.36621,0.43262-5.71143,1.2998-7.03809
	c0.86523-1.32422,2.26953-1.98926,4.20801-1.98926c1.93652,0,3.33984,0.66504,4.20801,1.98926
	c0.86523,1.32666,1.2998,3.67188,1.2998,7.03809v41.15674h30.60059V61.2002c0-4.38428-0.76562-8.56787-2.29492-12.5459
	c-1.53027-3.97803-3.80176-7.42041-6.80859-10.32715c-3.00977-2.90723-6.78516-5.22607-11.32227-6.96191
	c-4.54004-1.73291-9.76758-2.60107-15.68262-2.60107c-6.01953,0-11.27246,0.86816-15.75879,2.60107
	c-4.49023,1.73584-8.23828,4.05469-11.24609,6.96191c-3.00977,2.90674-5.27832,6.34912-6.80859,10.32715
	c-1.5293,3.97803-2.29492,8.16162-2.29492,12.5459v45.8999H540.99951z"/>
<path fill="#d21888" d="M627.90186,30.6001h-16.52441V6.42627h-30.59961v69.46191c0,5.50781,0.68848,10.22705,2.06543,14.15283
	c1.37695,3.92773,3.31348,7.14062,5.81348,9.63867c2.49805,2.50098,5.50781,4.36035,9.02734,5.58447
	c3.51855,1.22412,7.36719,1.83594,11.55078,1.83594h18.66699V81.70264h-6.42676c-3.87695,0-6.52832-0.73877-7.95605-2.21875
	c-1.42871-1.47754-2.1416-4.36035-2.1416-8.64453V56.91602h16.52441V30.6001z"/>
</svg>
