<?xml version="1.0" encoding="utf-8"?>
<!-- Generator: Adobe Illustrator 15.0.0, SVG Export Plug-In  -->
<!DOCTYPE svg PUBLIC "-//W3C//DTD SVG 1.1//EN" "http://www.w3.org/Graphics/SVG/1.1/DTD/svg11.dtd" [
	<!ENTITY ns_flows "http://ns.adobe.com/Flows/1.0/">
]>
<svg version="1.1"
	 xmlns="http://www.w3.org/2000/svg" xmlns:xlink="http://www.w3.org/1999/xlink" xmlns:a="http://ns.adobe.com/AdobeSVGViewerExtensions/3.0/"
	 x="0px" y="0px" width="545px" height="123px" viewBox="0 0 545 123" overflow="visible" enable-background="new 0 0 545 123"
	 xml:space="preserve">
<defs>
</defs>
<path fill="#d21888" d="M61.15479,67.5h-8.7749c-3.06055,0-5.91895-0.47266-8.57227-1.41699
	c-2.65576-0.94531-4.97412-2.2959-6.95264-4.05029c-1.98096-1.75488-3.5332-3.86865-4.65771-6.34521
	c-1.12646-2.47412-1.6875-5.2417-1.6875-8.30225c0-3.14941,0.56104-5.98438,1.6875-8.50537
	c1.12451-2.51807,2.67676-4.65723,4.65771-6.41211c1.97852-1.75488,4.29688-3.10498,6.95264-4.05029
	C46.46094,27.47266,49.31934,27,52.37988,27h8.7749V0h-15.5249C39.5083,0,33.68262,1.19385,28.14746,3.57764
	C22.6123,5.96338,17.75244,9.271,13.56738,13.5c-4.18506,4.23145-7.49268,9.22656-9.92236,14.98535
	C1.21484,34.24609,0,40.54639,0,47.38525c0,6.75,1.21484,13.00635,3.64502,18.76514
	c2.42969,5.75977,5.7373,10.73242,9.92236,14.91699c4.18506,4.18555,9.04492,7.47168,14.58008,9.85547
	C33.68262,93.30859,39.5083,94.5,45.62988,94.5h15.5249V67.5z"/>
<path fill="#d21888" d="M133.64941,94.5V68.31055c0-7.64893-1.08008-14.17529-3.23975-19.5752
	c-2.16016-5.40039-5.0415-9.83203-8.64014-13.29785c-3.60059-3.46338-7.74121-6.00732-12.41992-7.62695
	c-4.68066-1.62012-9.54102-2.43066-14.58008-2.43066c-4.77148,0-9.29395,0.90088-13.56738,2.7002
	c-4.27588,1.80176-8.01172,4.34326-11.20508,7.62744c-3.1958,3.28662-5.71631,7.22266-7.56006,11.8125
	c-1.8457,4.59033-2.76758,9.67578-2.76758,15.25537c0,4.50195,0.87744,8.77539,2.63281,12.82422
	c1.75488,4.05078,4.16162,7.60742,7.22217,10.66602c3.05859,3.06055,6.63623,5.4668,10.73242,7.22266
	c4.09473,1.75391,8.48193,2.63184,13.1626,2.63184c1.3501,0,2.78857-0.06738,4.32031-0.20215
	c1.5293-0.13477,3.19336-0.29297,4.99463-0.47266V68.98535c-1.53125,0.54004-2.83496,0.92383-3.91504,1.14746
	c-1.07959,0.22559-2.11572,0.33789-3.10498,0.33789c-2.25049,0-4.27539-0.87793-6.07471-2.63281
	c-1.80176-1.75488-2.7002-4.11719-2.7002-7.0874c0-3.05908,0.92188-5.44434,2.76758-7.15527
	c1.84375-1.70898,4.07129-2.56494,6.68262-2.56494c2.60938,0,4.92725,0.85596,6.95215,2.56494
	c2.02539,1.71094,3.0376,4.09619,3.0376,7.15527V94.5H133.64941z"/>
<path fill="#d21888" d="M173.47363,27h-14.58008V5.67041h-27v61.28955c0,4.86035,0.60742,9.02441,1.82227,12.4873
	c1.21533,3.4668,2.92383,6.30078,5.13037,8.50586c2.2041,2.20605,4.85986,3.84668,7.96484,4.92676S153.31201,94.5,157.00342,94.5
	h16.47021V72.08984h-5.66992c-3.42139,0-5.76074-0.65137-7.02002-1.95703c-1.26172-1.30371-1.89014-3.84766-1.89014-7.62695
	V50.22021h14.58008V27z"/>
<path fill="#d21888" d="M245.83301,94.5V68.31055c0-7.64893-1.08008-14.17529-3.24023-19.5752
	c-2.16016-5.40039-5.0415-9.83203-8.64014-13.29785c-3.60059-3.46338-7.74121-6.00732-12.41992-7.62695
	c-4.68066-1.62012-9.54053-2.43066-14.58008-2.43066c-4.771,0-9.29346,0.90088-13.56738,2.7002
	c-4.27588,1.80176-8.01123,4.34326-11.20508,7.62744c-3.1958,3.28662-5.71631,7.22266-7.56006,11.8125
	c-1.8457,4.59033-2.76709,9.67578-2.76709,15.25537c0,4.50195,0.87744,8.77539,2.63232,12.82422
	c1.75488,4.05078,4.16162,7.60742,7.22266,10.66602c3.05859,3.06055,6.63574,5.4668,10.73242,7.22266
	c4.09424,1.75391,8.48145,2.63184,13.1626,2.63184c1.34961,0,2.78857-0.06738,4.31982-0.20215
	c1.5293-0.13477,3.19336-0.29297,4.99512-0.47266V68.98535c-1.53174,0.54004-2.83496,0.92383-3.91504,1.14746
	c-1.08008,0.22559-2.11572,0.33789-3.10498,0.33789c-2.25098,0-4.27588-0.87793-6.0752-2.63281
	c-1.80127-1.75488-2.69971-4.11719-2.69971-7.0874c0-3.05908,0.92139-5.44434,2.76709-7.15527
	c1.84375-1.70898,4.07129-2.56494,6.68262-2.56494c2.60938,0,4.92773,0.85596,6.95264,2.56494
	c2.0249,1.71094,3.0376,4.09619,3.0376,7.15527V94.5H245.83301z"/>
<path fill="#d21888" d="M245.29199,94.5h27V0h-27V94.5z"/>
<path fill="#d21888" d="M313.53418,54.67529c1.75488,1.71094,2.63281,3.73535,2.63281,6.0752
	c0,2.34131-0.87793,4.3667-2.63281,6.07471c-1.75488,1.71094-3.80371,2.56543-6.14258,2.56543
	c-2.34082,0-4.3877-0.85449-6.1416-2.56543c-1.75586-1.70801-2.63281-3.7334-2.63281-6.07471
	c0-2.33984,0.87695-4.36426,2.63281-6.0752c1.75391-1.70898,3.80078-2.56494,6.1416-2.56494
	C309.73047,52.11035,311.7793,52.96631,313.53418,54.67529z M293.62207,28.14746c-4.32031,1.84619-8.10059,4.3667-11.34082,7.56006
	c-3.23926,3.1958-5.7832,6.95264-7.62695,11.27246c-1.8457,4.31982-2.76758,8.91064-2.76758,13.77051
	s0.92188,9.4292,2.76758,13.70264c1.84375,4.27539,4.3877,8.03223,7.62695,11.27148
	c3.24023,3.24023,7.02051,5.78516,11.34082,7.62891c4.31934,1.84277,8.90918,2.7666,13.76953,2.7666s9.4502-0.92383,13.77051-2.7666
	c4.32031-1.84375,8.07617-4.38867,11.27246-7.62891c3.19336-3.23926,5.7373-6.99609,7.62793-11.27148
	c1.88867-4.27344,2.83398-8.84277,2.83398-13.70264s-0.94531-9.45068-2.83398-13.77051
	c-1.89062-4.31982-4.43457-8.07666-7.62793-11.27246c-3.19629-3.19336-6.95215-5.71387-11.27246-7.56006
	c-4.32031-1.84326-8.91016-2.76758-13.77051-2.76758S297.94141,26.3042,293.62207,28.14746z"/>
<path fill="#d21888" d="M348.56445,119.87988c2.60938,0.62891,4.99609,1.16895,7.15625,1.62012
	c2.15918,0.44922,4.27344,0.81055,6.34375,1.08008c2.07031,0.27051,4.20703,0.47266,6.41309,0.60742
	c2.2041,0.13477,4.65723,0.20312,7.35742,0.20312c11.96875,0,21.17188-2.8584,27.60742-8.57324
	c6.43359-5.71582,9.65332-13.61328,9.65332-23.69238V57.64502c0-4.58984-1.05957-8.84229-3.17383-12.75732
	c-2.11523-3.91504-4.85938-7.31104-8.23438-10.19238c-3.375-2.87939-7.17773-5.15137-11.40723-6.81787
	c-4.23145-1.66406-8.50488-2.49756-12.8252-2.49756c-4.95117,0-9.58496,0.90088-13.90527,2.7002
	c-4.31934,1.80176-8.09961,4.27588-11.33984,7.42529c-3.23926,3.15137-5.80469,6.86377-7.69434,11.13721
	c-1.89062,4.27588-2.83594,8.88916-2.83594,13.8374c0,4.31982,0.74219,8.52783,2.22852,12.62354
	c1.48438,4.0957,3.57617,7.7168,6.27734,10.86719c2.69922,3.15039,5.93945,5.69238,9.71973,7.62695
	c3.78027,1.93652,7.96484,2.90234,12.55469,2.90234c3.24023,0,6.47949-0.62891,9.71973-1.88965V67.90527
	c-0.80957,0.36035-1.6875,0.60742-2.63281,0.74219c-0.94434,0.13574-1.77734,0.20312-2.49707,0.20312
	c-2.07129,0-4.02832-0.6748-5.87207-2.02539c-1.8457-1.35059-2.76758-3.55371-2.76758-6.61475
	c0-3.05908,0.92188-5.26514,2.76758-6.61523c1.84375-1.3501,3.80078-2.0249,5.87207-2.0249
	c0.98926,0,2.00195,0.1582,3.03809,0.47266c1.0332,0.31641,1.97852,0.83301,2.83398,1.55225
	c0.85547,0.72168,1.55273,1.62012,2.09375,2.7002c0.53906,1.07959,0.80957,2.38525,0.80957,3.91504V91.125
	c0,1.71094-0.45215,3.17188-1.35059,4.3877c-0.90039,1.21484-2.04785,2.2041-3.44141,2.96973
	c-1.39648,0.76367-2.99414,1.32715-4.79297,1.6875c-1.80176,0.35938-3.60156,0.54102-5.40039,0.54102
	c-3.7793,0-7.49219-0.40625-11.13672-1.21582c-3.64551-0.80957-7.35742-1.62012-11.13867-2.42969V119.87988z"/>
<path fill="#d21888" d="M448.32812,27v36.31543c0,2.96973-0.38379,5.04199-1.14746,6.20996
	c-0.76562,1.16992-2.00391,1.75391-3.71191,1.75391c-1.71094,0-2.94922-0.58398-3.71289-1.75391
	c-0.76562-1.16797-1.14746-3.24023-1.14746-6.20996V27h-27v40.5c0,3.96094,0.6748,7.67383,2.02441,11.1377
	c1.35059,3.46582,3.35254,6.47949,6.00781,9.04492c2.6543,2.56543,5.96094,4.61328,9.92285,6.14258
	c3.95898,1.5293,8.59277,2.29492,13.90527,2.29492c5.21875,0,9.83203-0.76562,13.83691-2.29492
	c4.00391-1.5293,7.33496-3.57715,9.99023-6.14258c2.65332-2.56543,4.65723-5.5791,6.00684-9.04492
	c1.35059-3.46387,2.02539-7.17676,2.02539-11.1377V27H448.32812z"/>
<path fill="#d21888" d="M544.98633,51.57031c-1.16992-3.86865-2.79004-7.40186-4.85938-10.59766
	c-2.07227-3.19336-4.63672-5.93994-7.69531-8.23486c-3.06055-2.29492-6.57031-4.09473-10.53027-5.40039
	c-3.96191-1.30322-8.41602-1.95752-13.36426-1.95752c-4.23242,0-8.39355,0.85693-12.48828,2.56543
	c-4.0957,1.71045-7.74121,4.09619-10.93457,7.15479c-3.19629,3.06055-5.78418,6.70605-7.7627,10.93506
	c-1.98047,4.23145-2.96973,8.82178-2.96973,13.77002c0,5.31201,0.87793,10.17139,2.63184,14.57959
	c1.75586,4.41113,4.20703,8.23535,7.35742,11.47461c3.15039,3.24023,6.88574,5.76172,11.20508,7.56055
	c4.32031,1.7998,9.08984,2.7002,14.31055,2.7002c7.01953,0,13.56738-1.50879,19.64258-4.52246
	c6.07422-3.01465,11.22559-6.86133,15.45703-11.54297l-15.25488-15.38965c-2.42969,2.6123-4.97363,4.77246-7.62793,6.47949
	c-2.65527,1.71094-5.87207,2.56641-9.65234,2.56641c-4.50098,0-7.87598-1.46289-10.125-4.38867
	c-2.25-2.92285-3.375-6.5-3.375-10.73193c0-1.43896,0.29102-2.90283,0.87793-4.3877
	c0.58496-1.48486,1.35059-2.81201,2.29492-3.98242c0.94531-1.16846,2.00195-2.13721,3.17285-2.90283
	c1.16797-0.76318,2.29492-1.14697,3.375-1.14697c1.97852,0,3.59766,0.22559,4.85938,0.6748
	c1.25977,0.45166,2.47461,1.1709,3.64551,2.16016l-13.5,7.4248l7.69434,13.63525L544.98633,51.57031z"/>
</svg>
