<?xml version="1.0" encoding="utf-8"?>
<!-- Generator: Adobe Illustrator 15.0.0, SVG Export Plug-In  -->
<!DOCTYPE svg PUBLIC "-//W3C//DTD SVG 1.1//EN" "http://www.w3.org/Graphics/SVG/1.1/DTD/svg11.dtd" [
	<!ENTITY ns_flows "http://ns.adobe.com/Flows/1.0/">
]>
<svg version="1.1"
	 xmlns="http://www.w3.org/2000/svg" xmlns:xlink="http://www.w3.org/1999/xlink" xmlns:a="http://ns.adobe.com/AdobeSVGViewerExtensions/3.0/"
	 x="0px" y="0px" width="670px" height="92px" viewBox="0 0 670 92" overflow="visible" enable-background="new 0 0 670 92"
	 xml:space="preserve">
<defs>
</defs>
<rect y="1.44043" width="28.08008" height="24"/>
<path d="M114.99658,25.44043c-0.17627-0.67236-0.34766-1.34229-0.56152-2.03809c-1.20166-3.91211-3.15332-7.60742-5.85742-11.08887
	c-2.70361-3.48047-6.24561-6.40332-10.62158-8.76758C93.57959,1.18359,88.21533,0,81.86279,0S70.146,1.18359,65.76953,3.5459
	c-4.37793,2.36426-7.94043,5.28711-10.68555,8.76758c-2.74707,3.48145-4.72119,7.17676-5.92334,11.08887
	c-0.21387,0.6958-0.38525,1.36572-0.56104,2.03809H114.99658z"/>
<path d="M180.11523,25.44043c0.01074-0.03662,0.02734-0.07617,0.0376-0.1123c0.55859-1.98047,0.83984-3.96094,0.83984-5.94043
	c0-3.35645-0.56055-6.17676-1.68018-8.45605c-1.11914-2.28027-2.5835-4.13086-4.39111-5.55176
	c-1.80957-1.42188-3.89795-2.43262-6.26611-3.03613c-2.36816-0.60156-4.75684-0.90332-7.16846-0.90332h-43.01416v24H180.11523z"/>
<path d="M222.73926,1.44043c-5.33252,0-10.7085,0.90332-16.125,2.71094c-5.41895,1.80762-10.32031,4.58398-14.70605,8.32715
	c-4.0791,3.479-7.44043,7.80762-10.10645,12.96191h44.2915h10.83594v-24H222.73926z"/>
<path d="M47.35889,35.75977V66h-1.09131c-4.12891,0-7.39697-0.10645-9.80469-0.32227
	c-2.40723-0.21387-4.23535-0.64551-5.48242-1.29004c-1.24707-0.64551-2.04199-1.52832-2.38477-2.64746
	c-0.34521-1.11914-0.51562-2.62695-0.51562-4.52051V35.75977H0v29.44922c0,3.95996,0.66553,7.57324,1.99707,10.84277
	c1.33105,3.27051,3.17578,6.06738,5.53857,8.39062c2.36035,2.3252,5.19385,4.13281,8.50098,5.42285
	c3.30566,1.29004,6.89062,1.93457,10.75537,1.93457h20.56689h4.19775h23.88232V35.75977H47.35889z"/>
<path d="M178.13184,35.75977c-0.7041,3.36816-1.05859,6.98682-1.05859,10.86035c0,7.38281,1.29053,13.83691,3.84766,19.37988
	h-31.96826l24.22949-30.24023h-33.17773l-20.58691,24.53516c-1.32861,1.59619-2.38525,3.04102-3.17822,4.34033V35.75977H88.15918
	v5.64062h-8.64209v22.91992h8.64209V91.7998h28.08008v-8.2373c1.00977,1.70898,2.23389,3.15186,3.69385,4.2998
	c1.80566,1.42188,3.87012,2.43262,6.19141,3.03418c2.32129,0.60352,4.73047,0.90332,7.22461,0.90332h47.64355V66.16113
	c0.07178,0.15381,0.13379,0.31445,0.20752,0.4668c2.75244,5.68164,6.3208,10.39355,10.70801,14.13574
	c4.38574,3.74316,9.28711,6.51758,14.70605,8.3252c5.4165,1.80762,10.79248,2.71094,16.125,2.71094h14.18994v-24h-10.83594
	c-1.72119,0-3.46289-0.14941-5.22559-0.45117c-1.76221-0.30078-3.44043-0.83887-5.03076-1.61328
	c-1.5918-0.77246-3.07471-1.82617-4.45117-3.15918c-1.37598-1.33301-2.49365-3.03125-3.35254-5.0957h28.896v-21.7207h-28.896
	H178.13184z"/>
<path d="M304.76807,25.44043c-0.27637-3.36621-1.20361-6.45898-2.80127-9.2666c-1.93164-3.39355-4.42139-6.29199-7.47021-8.69824
	c-3.04883-2.40527-6.50635-4.25195-10.36865-5.54199C280.26367,0.64551,276.39893,0,272.53662,0
	c-10.99121,0-19.47168,2.9873-25.43994,8.96094c-4.18652,4.19043-6.89844,9.6875-8.14746,16.47949H304.76807z"/>
<rect x="238.14551" y="35.75977" width="28.08008" height="56.04004"/>
<path d="M296.2666,46.26758c2.7373-2.2334,4.85449-5.04785,6.35254-8.44141c0.30322-0.68799,0.56738-1.37695,0.80957-2.06641
	h-25.33643c-0.46973,0.64502-1.09619,1.16211-1.89941,1.53418c-1.93506,0.89844-3.979,1.34668-6.12744,1.34668v21.71973
	c3.37109,0,5.55371,0.66504,6.54736,1.99707c0.99365,1.33105,1.49268,3.62988,1.49268,6.89355V91.7998h28.08008V64.71191
	c0-4.55664-0.73145-8.42578-2.19043-11.6084C302.53467,49.92383,299.9585,47.64355,296.2666,46.26758z"/>
<path d="M378.46484,35.75977c-0.7041,3.36816-1.05859,6.98682-1.05859,10.86035c0,7.65918,1.37451,14.3291,4.12695,20.00781
	c2.75244,5.68164,6.3208,10.39355,10.70801,14.13574c4.38574,3.74316,9.28711,6.51758,14.70605,8.3252
	c5.4165,1.80762,10.79199,2.71094,16.125,2.71094h14.18994v-24h-10.83594c-1.72119,0-3.46289-0.14941-5.22559-0.45117
	c-1.76221-0.30078-3.44043-0.83887-5.03027-1.61328c-1.59229-0.77246-3.0752-1.82617-4.45166-3.15918
	c-1.37598-1.33301-2.49365-3.03125-3.35254-5.0957h28.896v-21.7207h-28.896H378.46484z"/>
<path d="M423.07227,1.44043c-5.33301,0-10.7085,0.90332-16.125,2.71094c-5.41895,1.80762-10.32031,4.58398-14.70605,8.32715
	c-4.0791,3.479-7.44043,7.80762-10.10645,12.96191h44.2915h10.83594v-24H423.07227z"/>
<rect x="438.47852" y="35.75977" width="28.08008" height="56.04004"/>
<path d="M506.11621,25.44043c-0.17578-0.67236-0.34766-1.34229-0.56152-2.03809c-1.20215-3.91211-3.1543-7.60742-5.85742-11.08887
	c-2.7041-3.48047-6.24609-6.40332-10.62207-8.76758C484.69922,1.18359,479.33398,0,472.98242,0
	c-6.35254,0-11.71729,1.18359-16.09326,3.5459c-4.37842,2.36426-7.94092,5.28711-10.68555,8.76758
	c-2.74707,3.48145-4.72168,7.17676-5.92334,11.08887c-0.21387,0.6958-0.38525,1.36572-0.56104,2.03809H506.11621z"/>
<polygon points="479.27832,41.40039 470.63672,41.40039 470.63672,64.32031 479.27832,64.32031 479.27832,91.7998 507.3584,91.7998 
	507.3584,35.75977 479.27832,35.75977 "/>
<path d="M606.14355,25.44043l-0.54004-6.4873c-0.3457-3.86719-1.09668-7.02637-2.25781-9.47656
	c-1.16016-2.44922-2.60059-4.38379-4.32031-5.80176c-1.7207-1.41699-3.63379-2.38477-5.74121-2.90039S589.04688,0,586.89844,0
	c-3.26855,0-5.99805,0.25879-8.19238,0.77441c-2.19336,0.51562-3.99902,1.33105-5.41699,2.44922
	c-1.41895,1.11719-2.5791,2.60059-3.4834,4.44922c-0.90332,1.84863-1.69824,4.0625-2.38477,6.64062l-2.88623,11.12695H606.14355z"/>
<path d="M665.99121,25.44043v-24h-25.80078c-3.95605,0-7.76172,0.3877-11.41699,1.16211
	c-3.65625,0.77637-6.90137,2.13184-9.74023,4.06738c-2.83887,1.93652-5.0957,4.49805-6.77246,7.68164
	c-1.58057,3.00439-2.40674,6.70654-2.49658,11.08887H665.99121z"/>
<path d="M555.59912,25.44043l-2.88623-11.12695c-0.6875-2.57812-1.48242-4.79199-2.38672-6.64062
	c-0.90332-1.84863-2.06445-3.33203-3.48145-4.44922c-1.41992-1.11816-3.22559-1.93359-5.41895-2.44922S536.50195,0,533.23633,0
	c-2.2373,0-4.3877,0.25879-6.45215,0.77441s-3.95605,1.4834-5.67578,2.90039c-1.72168,1.41797-3.16113,3.35254-4.32227,5.80176
	c-1.16016,2.4502-1.91211,5.60938-2.25488,9.47656l-0.54004,6.4873H555.59912z"/>
<path d="M662.1377,49.08594c-2.15234-2.4082-4.47559-4.58105-6.97168-6.51562c-2.49707-1.93555-4.82031-3.67871-6.97266-5.22754
	c-0.76758-0.55225-1.47168-1.07471-2.14551-1.58301h-33.93506c1.27637,2.44873,2.84326,4.74414,4.73193,6.87012
	c2.06445,2.3252,4.25879,4.43262,6.58203,6.32617c2.32129,1.89453,4.51465,3.61719,6.58105,5.16602
	c2.06445,1.54883,3.7627,2.94727,5.09766,4.19629c1.33301,1.24902,2.00098,2.38867,2.00098,3.41992
	c0,1.72266-0.71094,2.86523-2.12793,3.42383C633.55859,65.7207,630.78613,66,626.65918,66h-17.13965l-2.51709-30.24023H561.8584
	l-1.66211,6.40723h-0.25879l-1.66211-6.40723h-45.14355L508.4668,91.7998h27.21973l3.0957-53.11426h0.25879l9.54492,39.58691
	c0.77344,3.09473,1.4834,5.63184,2.12891,7.6084c0.64453,1.97852,1.37402,3.52441,2.19141,4.64258
	c0.81738,1.11719,1.78516,1.86914,2.90234,2.25684c1.11816,0.38477,2.53711,0.58008,4.25879,0.58008
	c1.71875,0,3.13867-0.19531,4.25586-0.58008c1.11719-0.3877,2.08496-1.13965,2.90234-2.25684
	c0.81738-1.11816,1.54883-2.66406,2.19434-4.64258c0.64453-1.97656,1.35352-4.51367,2.12793-7.6084l9.5459-39.58691h0.25781
	l3.0957,53.11426h25.05957h2.16016h25.06055c5.33301,0,10.04102-0.62207,14.12598-1.87109
	c4.08594-1.24707,7.52637-2.98828,10.32227-5.22559c2.79395-2.23633,4.90137-4.88281,6.32031-7.93652
	c1.41992-3.05273,2.12988-6.38672,2.12988-10.00098c0-3.52734-0.70996-6.75391-2.12988-9.67969
	C666.0752,54.16113,664.29004,51.49512,662.1377,49.08594z"/>
<path d="M338.25684,25.44043c0.60498-0.23486,1.31152-0.36035,2.13281-0.36035c0.66357,0,1.32812,0.12793,1.99219,0.36035h30.95166
	c-0.23877-3.56494-1.11182-6.78271-2.63232-9.64551c-1.8042-3.39551-4.18896-6.25293-7.15332-8.57422
	c-2.96631-2.32129-6.36035-4.10449-10.18506-5.35156C349.5376,0.625,345.65088,0,341.69824,0
	c-5.24219,0-9.96924,0.73145-14.18066,2.19238c-4.21094,1.46191-7.7998,3.50391-10.76416,6.125s-5.26318,5.80176-6.89648,9.54004
	c-1.03906,2.37939-1.74414,4.9082-2.12158,7.58301H338.25684z"/>
<rect x="307.4082" y="35.75977" width="28.08008" height="56.04004"/>
<path d="M367.60352,42.80664c2.11523-2.37061,3.604-4.71875,4.4707-7.04688h-32.74561v19.68066
	c1.11719,0,2.29834,0.02246,3.54541,0.06543s2.40771,0.25684,3.48389,0.64258c1.07422,0.38672,1.95557,0.98828,2.64355,1.80273
	c0.68799,0.81543,1.0332,1.95312,1.0332,3.41211c0,1.37207-0.36572,2.46777-1.09717,3.2832
	c-0.73096,0.81543-1.63281,1.43848-2.70703,1.86719c-1.07617,0.42969-2.2373,0.72949-3.48389,0.90039
	c-1.24902,0.17188-2.38721,0.2998-3.41797,0.38574v24h11.60596c3.86816,0,7.5-0.5791,10.89746-1.73926
	c3.39551-1.16113,6.38281-2.88086,8.9624-5.1582c2.58008-2.27637,4.59961-5.09277,6.06201-8.44531
	c1.46094-3.35254,2.19189-7.2207,2.19189-11.60449C379.04834,54.79688,375.23291,47.44922,367.60352,42.80664z"/>
</svg>
