<?xml version="1.0" encoding="utf-8"?>
<!-- Generator: Adobe Illustrator 15.0.0, SVG Export Plug-In  -->
<!DOCTYPE svg PUBLIC "-//W3C//DTD SVG 1.1//EN" "http://www.w3.org/Graphics/SVG/1.1/DTD/svg11.dtd" [
	<!ENTITY ns_flows "http://ns.adobe.com/Flows/1.0/">
]>
<svg version="1.1"
	 xmlns="http://www.w3.org/2000/svg" xmlns:xlink="http://www.w3.org/1999/xlink" xmlns:a="http://ns.adobe.com/AdobeSVGViewerExtensions/3.0/"
	 x="0px" y="0px" width="628px" height="454px" viewBox="0 3.289 628 454"
	 overflow="visible" enable-background="new 0 3.289 628 454" xml:space="preserve">
<defs>
</defs>
<g id="Shape_7_2_">
	<g>
		<rect x="0.054" y="380.691" fill-rule="evenodd" clip-rule="evenodd" fill="#D11888" width="443.163" height="8.805"/>
		<rect x="0.054" y="389.496" fill-rule="evenodd" clip-rule="evenodd" fill="#FFFFFF" width="443.163" height="3.277"/>
	</g>
</g>
<g id="Shape_2_9_">
	<g>
		<polygon fill-rule="evenodd" clip-rule="evenodd" points="104.043,139.544 85.191,457.337 367.013,456.835 367.167,3.289 		"/>
	</g>
	<g>
		<polygon fill="none" stroke="#FFFFFF" stroke-width="4" stroke-miterlimit="10" points="104.043,139.544 85.191,457.337 
			367.013,456.835 367.167,3.289 		"/>
	</g>
</g>
<g id="Shape_6_2_">
	<g>
		<rect y="413" fill-rule="evenodd" clip-rule="evenodd" fill="#D11888" width="467.815" height="24.788"/><!-- thing to fill space between bottom 2 -->
		<rect y="392.773" fill-rule="evenodd" clip-rule="evenodd" fill="#D11888" width="467.815" height="24.788"/>
	</g>
</g>
<g id="Shape_2_2_">
	<g>
		<polygon fill-rule="evenodd" clip-rule="evenodd" points="342.396,204.204 249.375,457.159 425.369,457.088 503.614,138.417 		"/>
	</g>
	<g>
		<polygon fill="none" stroke="#FFFFFF" stroke-width="4" stroke-miterlimit="10" points="342.396,204.204 249.375,457.159 
			425.369,457.088 503.614,138.417 		"/>
	</g>
</g>
<g id="Shape_5_2_">
	<g>
		<rect y="417.354" fill-rule="evenodd" clip-rule="evenodd" fill="#D11888" width="388.107" height="39.966"/>
	</g>
</g>
<g id="Shape_2_1_">
	<g>
		<polygon fill-rule="evenodd" clip-rule="evenodd" points="383.733,329.873 345.417,457.15 607.271,457.059 628.046,282.801 		"/>
	</g>
	<g>
		<polygon fill="none" stroke="#FFFFFF" stroke-width="4" stroke-miterlimit="10" points="383.733,329.873 345.417,457.15 
			607.271,457.059 628.046,282.801 		"/>
	</g>
</g>
</svg>
